# xmcd
#
# Track frame offsets:
#	150
#	16602
#	34746
#	54306
#	71404
#	96399
#	122145
#	141322
#	157169
#
# Disc length: 2378 seconds
# Revision: 1
# Processed by: cddbd v1.5.2PL0 Copyright (c) Steve Scherf et al.
# Submitted via: dBpowerAMP V12.0
#
DISCID=77094809
DTITLE=Elkie Brooks - Powerless
DYEAR=2010
DGENRE=Blues
TTITLE0=Powerless
TTITLE1=Someday We'll All Be Free
TTITLE2=Why
TTITLE3=Dancing On The Tables
TTITLE4=I Can't Make You Love Me
TTITLE5=Purple Rain
TTITLE6=Holding On To You
TTITLE7=Make You Feel My Love
TTITLE8=A Song For You
EXTD=
EXTT0=
EXTT1=
EXTT2=
EXTT3=
EXTT4=
EXTT5=
EXTT6=
EXTT7=
EXTT8=
PLAYORDER=
